STARTFONT 2.1
FONT -FontForge-Calibri-Bold-R-Normal--16-150-75-75-P-80-ISO10646-1
SIZE 15 75 75
FONTBOUNDINGBOX 18 17 -1 -3
COMMENT "Generated by fontforge, http://fontforge.sourceforge.net"
COMMENT "(c) 2012 Microsoft Corporation. All Rights Reserved."
STARTPROPERTIES 40
FOUNDRY "FontForge"
FAMILY_NAME "Calibri"
WEIGHT_NAME "Bold"
SLANT "R"
SETWIDTH_NAME "Normal"
ADD_STYLE_NAME ""
PIXEL_SIZE 16
POINT_SIZE 150
RESOLUTION_X 75
RESOLUTION_Y 75
SPACING "P"
AVERAGE_WIDTH 80
CHARSET_REGISTRY "ISO10646"
CHARSET_ENCODING "1"
FONTNAME_REGISTRY ""
CHARSET_COLLECTIONS "ISO8859-2 ISO8859-5 ISO8859-7 ISO8859-9 ISO8859-4 ISO10646-1"
FONT_NAME "Calibri-Bold"
FACE_NAME "Calibri Bold"
COPYRIGHT "(c) 2012 Microsoft Corporation. All Rights Reserved."
FONT_VERSION "5.72"
FONT_ASCENT 13
FONT_DESCENT 3
UNDERLINE_POSITION -2
UNDERLINE_THICKNESS 2
X_HEIGHT 6
CAP_HEIGHT 9
DEFAULT_CHAR 1
RAW_ASCENT 750
RAW_DESCENT 250
RELATIVE_WEIGHT 70
RELATIVE_SETWIDTH 50
SUPERSCRIPT_X 0
SUPERSCRIPT_Y 7
SUPERSCRIPT_SIZE 10
SUBSCRIPT_X 0
SUBSCRIPT_Y 2
SUBSCRIPT_SIZE 10
FIGURE_WIDTH 8
AVG_LOWERCASE_WIDTH 78
AVG_UPPERCASE_WIDTH 91
ENDPROPERTIES
CHARS 219
STARTCHAR exclam
ENCODING 33
SWIDTH 325 0
DWIDTH 5 0
BBX 2 11 1 0
BITMAP
C0
C0
C0
C0
C0
C0
C0
C0
00
C0
C0
ENDCHAR
STARTCHAR quotedbl
ENCODING 34
SWIDTH 438 0
DWIDTH 7 0
BBX 5 4 1 7
BITMAP
D8
D8
D8
D8
ENDCHAR
STARTCHAR numbersign
ENCODING 35
SWIDTH 498 0
DWIDTH 8 0
BBX 8 10 0 0
BITMAP
36
36
36
FF
36
6C
FF
6C
6C
6C
ENDCHAR
STARTCHAR dollar
ENCODING 36
SWIDTH 506 0
DWIDTH 8 0
BBX 7 14 0 -2
BITMAP
18
18
7C
FE
C2
E0
78
3C
0E
86
FE
7C
30
30
ENDCHAR
STARTCHAR percent
ENCODING 37
SWIDTH 729 0
DWIDTH 12 0
BBX 11 10 0 0
BITMAP
70C0
D980
DB00
DB00
7600
0DC0
1B60
1B60
3360
61C0
ENDCHAR
STARTCHAR ampersand
ENCODING 38
SWIDTH 704 0
DWIDTH 11 0
BBX 10 10 1 0
BITMAP
3C00
7E00
6600
6600
3C00
7980
CD80
C700
FFC0
7DC0
ENDCHAR
STARTCHAR quotesingle
ENCODING 39
SWIDTH 233 0
DWIDTH 4 0
BBX 2 4 1 7
BITMAP
C0
C0
C0
C0
ENDCHAR
STARTCHAR parenleft
ENCODING 40
SWIDTH 311 0
DWIDTH 5 0
BBX 4 14 1 -3
BITMAP
30
60
60
60
C0
C0
C0
C0
C0
C0
60
60
60
30
ENDCHAR
STARTCHAR parenright
ENCODING 41
SWIDTH 311 0
DWIDTH 5 0
BBX 4 14 0 -3
BITMAP
C0
60
60
60
30
30
30
30
30
30
60
60
60
C0
ENDCHAR
STARTCHAR asterisk
ENCODING 42
SWIDTH 498 0
DWIDTH 8 0
BBX 5 6 1 5
BITMAP
20
A8
70
70
A8
20
ENDCHAR
STARTCHAR plus
ENCODING 43
SWIDTH 498 0
DWIDTH 8 0
BBX 8 8 0 1
BITMAP
18
18
18
FF
FF
18
18
18
ENDCHAR
STARTCHAR comma
ENCODING 44
SWIDTH 257 0
DWIDTH 4 0
BBX 3 4 0 -2
BITMAP
60
60
60
C0
ENDCHAR
STARTCHAR hyphen
ENCODING 45
SWIDTH 306 0
DWIDTH 5 0
BBX 3 2 1 3
BITMAP
E0
E0
ENDCHAR
STARTCHAR period
ENCODING 46
SWIDTH 267 0
DWIDTH 4 0
BBX 2 2 1 0
BITMAP
C0
C0
ENDCHAR
STARTCHAR slash
ENCODING 47
SWIDTH 429 0
DWIDTH 7 0
BBX 7 14 0 -2
BITMAP
06
06
0C
0C
18
18
18
30
30
30
60
60
C0
C0
ENDCHAR
STARTCHAR zero
ENCODING 48
SWIDTH 506 0
DWIDTH 8 0
BBX 7 10 0 0
BITMAP
7C
FE
C6
C6
C6
C6
C6
C6
FE
7C
ENDCHAR
STARTCHAR one
ENCODING 49
SWIDTH 506 0
DWIDTH 8 0
BBX 6 10 1 0
BITMAP
30
F0
F0
30
30
30
30
30
FC
FC
ENDCHAR
STARTCHAR two
ENCODING 50
SWIDTH 506 0
DWIDTH 8 0
BBX 7 10 0 0
BITMAP
7C
FE
86
06
0C
18
30
60
FE
FE
ENDCHAR
STARTCHAR three
ENCODING 51
SWIDTH 506 0
DWIDTH 8 0
BBX 7 10 0 0
BITMAP
7C
FE
86
06
7C
7E
06
86
FE
7C
ENDCHAR
STARTCHAR four
ENCODING 52
SWIDTH 506 0
DWIDTH 8 0
BBX 7 10 0 0
BITMAP
1C
3C
3C
6C
6C
CC
FE
FE
0C
0C
ENDCHAR
STARTCHAR five
ENCODING 53
SWIDTH 506 0
DWIDTH 8 0
BBX 7 10 0 0
BITMAP
FE
FE
C0
C0
FC
FE
06
86
FE
7C
ENDCHAR
STARTCHAR six
ENCODING 54
SWIDTH 506 0
DWIDTH 8 0
BBX 7 10 0 0
BITMAP
3E
7E
E0
C0
DC
FE
C6
C6
FE
7C
ENDCHAR
STARTCHAR seven
ENCODING 55
SWIDTH 506 0
DWIDTH 8 0
BBX 7 10 0 0
BITMAP
FE
FE
0C
0C
18
18
30
30
60
60
ENDCHAR
STARTCHAR eight
ENCODING 56
SWIDTH 506 0
DWIDTH 8 0
BBX 7 10 0 0
BITMAP
7C
FE
C6
C6
7C
7C
C6
C6
FE
7C
ENDCHAR
STARTCHAR nine
ENCODING 57
SWIDTH 506 0
DWIDTH 8 0
BBX 7 10 0 0
BITMAP
7C
FE
C6
C6
FE
76
06
0E
FC
F8
ENDCHAR
STARTCHAR colon
ENCODING 58
SWIDTH 275 0
DWIDTH 4 0
BBX 2 7 1 0
BITMAP
C0
C0
00
00
00
C0
C0
ENDCHAR
STARTCHAR semicolon
ENCODING 59
SWIDTH 275 0
DWIDTH 4 0
BBX 3 9 0 -2
BITMAP
60
60
00
00
00
60
60
60
C0
ENDCHAR
STARTCHAR less
ENCODING 60
SWIDTH 498 0
DWIDTH 8 0
BBX 7 8 0 1
BITMAP
06
1E
78
E0
E0
78
1E
06
ENDCHAR
STARTCHAR equal
ENCODING 61
SWIDTH 498 0
DWIDTH 8 0
BBX 8 6 0 2
BITMAP
FF
FF
00
00
FF
FF
ENDCHAR
STARTCHAR greater
ENCODING 62
SWIDTH 498 0
DWIDTH 8 0
BBX 7 8 1 1
BITMAP
C0
F0
3C
0E
0E
3C
F0
C0
ENDCHAR
STARTCHAR question
ENCODING 63
SWIDTH 463 0
DWIDTH 7 0
BBX 6 11 0 0
BITMAP
78
FC
8C
0C
0C
38
30
30
00
30
30
ENDCHAR
STARTCHAR at
ENCODING 64
SWIDTH 898 0
DWIDTH 14 0
BBX 12 12 1 -2
BITMAP
0FC0
3FE0
7070
6FB0
DFB0
DB30
DB30
DFE0
CDC0
6000
7F80
1F80
ENDCHAR
STARTCHAR A
ENCODING 65
SWIDTH 605 0
DWIDTH 10 0
BBX 10 10 0 0
BITMAP
0C00
1E00
1E00
3300
3300
6180
7F80
7F80
C0C0
C0C0
ENDCHAR
STARTCHAR B
ENCODING 66
SWIDTH 560 0
DWIDTH 9 0
BBX 7 10 1 0
BITMAP
FC
FE
C6
C6
FC
FE
C6
C6
FE
FC
ENDCHAR
STARTCHAR C
ENCODING 67
SWIDTH 529 0
DWIDTH 8 0
BBX 7 10 1 0
BITMAP
3C
7E
E2
C0
C0
C0
C0
E2
7E
3C
ENDCHAR
STARTCHAR D
ENCODING 68
SWIDTH 630 0
DWIDTH 10 0
BBX 8 10 1 0
BITMAP
FC
FE
C7
C3
C3
C3
C3
C7
FE
FC
ENDCHAR
STARTCHAR E
ENCODING 69
SWIDTH 487 0
DWIDTH 8 0
BBX 6 10 1 0
BITMAP
FC
FC
C0
C0
F8
F8
C0
C0
FC
FC
ENDCHAR
STARTCHAR F
ENCODING 70
SWIDTH 458 0
DWIDTH 7 0
BBX 6 10 1 0
BITMAP
FC
FC
C0
C0
F8
F8
C0
C0
C0
C0
ENDCHAR
STARTCHAR G
ENCODING 71
SWIDTH 637 0
DWIDTH 10 0
BBX 8 10 1 0
BITMAP
3E
7F
E1
C0
CF
CF
C3
E3
7F
3E
ENDCHAR
STARTCHAR H
ENCODING 72
SWIDTH 630 0
DWIDTH 10 0
BBX 8 10 1 0
BITMAP
C3
C3
C3
C3
FF
FF
C3
C3
C3
C3
ENDCHAR
STARTCHAR I
ENCODING 73
SWIDTH 266 0
DWIDTH 4 0
BBX 2 10 1 0
BITMAP
C0
C0
C0
C0
C0
C0
C0
C0
C0
C0
ENDCHAR
STARTCHAR J
ENCODING 74
SWIDTH 331 0
DWIDTH 5 0
BBX 4 10 0 0
BITMAP
30
30
30
30
30
30
30
30
F0
E0
ENDCHAR
STARTCHAR K
ENCODING 75
SWIDTH 546 0
DWIDTH 9 0
BBX 8 10 1 0
BITMAP
C3
C7
CE
DC
F8
F8
DC
CE
C7
C3
ENDCHAR
STARTCHAR L
ENCODING 76
SWIDTH 422 0
DWIDTH 7 0
BBX 6 10 1 0
BITMAP
C0
C0
C0
C0
C0
C0
C0
C0
FC
FC
ENDCHAR
STARTCHAR M
ENCODING 77
SWIDTH 874 0
DWIDTH 14 0
BBX 12 10 1 0
BITMAP
E070
F0F0
F0F0
D9B0
D9B0
D9B0
CF30
CF30
C630
C630
ENDCHAR
STARTCHAR N
ENCODING 78
SWIDTH 658 0
DWIDTH 11 0
BBX 9 10 1 0
BITMAP
E180
F180
F180
D980
D980
CD80
CD80
C780
C780
C380
ENDCHAR
STARTCHAR O
ENCODING 79
SWIDTH 676 0
DWIDTH 11 0
BBX 9 10 1 0
BITMAP
3E00
7F00
E380
C180
C180
C180
C180
E380
7F00
3E00
ENDCHAR
STARTCHAR P
ENCODING 80
SWIDTH 532 0
DWIDTH 9 0
BBX 7 10 1 0
BITMAP
FC
FE
C6
C6
C6
FE
FC
C0
C0
C0
ENDCHAR
STARTCHAR Q
ENCODING 81
SWIDTH 686 0
DWIDTH 11 0
BBX 10 12 1 -2
BITMAP
3E00
7F00
E380
C180
C180
C180
C180
E380
7F00
3F80
01C0
00C0
ENDCHAR
STARTCHAR R
ENCODING 82
SWIDTH 562 0
DWIDTH 9 0
BBX 7 10 1 0
BITMAP
FC
FE
C6
C6
FC
F8
CC
CC
C6
C6
ENDCHAR
STARTCHAR S
ENCODING 83
SWIDTH 472 0
DWIDTH 8 0
BBX 6 10 1 0
BITMAP
78
FC
C4
C0
F8
7C
0C
8C
FC
78
ENDCHAR
STARTCHAR T
ENCODING 84
SWIDTH 495 0
DWIDTH 8 0
BBX 8 10 0 0
BITMAP
FF
FF
18
18
18
18
18
18
18
18
ENDCHAR
STARTCHAR U
ENCODING 85
SWIDTH 652 0
DWIDTH 10 0
BBX 8 10 1 0
BITMAP
C3
C3
C3
C3
C3
C3
C3
E7
7E
3C
ENDCHAR
STARTCHAR V
ENCODING 86
SWIDTH 591 0
DWIDTH 9 0
BBX 9 10 0 0
BITMAP
C180
C180
6300
6300
6300
3600
3600
3600
1C00
1C00
ENDCHAR
STARTCHAR W
ENCODING 87
SWIDTH 906 0
DWIDTH 15 0
BBX 15 10 0 0
BITMAP
C106
C386
638C
66CC
66CC
36D8
3C78
3C78
1830
1830
ENDCHAR
STARTCHAR X
ENCODING 88
SWIDTH 550 0
DWIDTH 9 0
BBX 7 10 1 0
BITMAP
C6
C6
6C
6C
38
38
6C
6C
C6
C6
ENDCHAR
STARTCHAR Y
ENCODING 89
SWIDTH 519 0
DWIDTH 8 0
BBX 8 10 0 0
BITMAP
C3
C3
66
66
3C
3C
18
18
18
18
ENDCHAR
STARTCHAR Z
ENCODING 90
SWIDTH 478 0
DWIDTH 8 0
BBX 8 10 0 0
BITMAP
FF
FF
07
0E
1C
38
70
E0
FF
FF
ENDCHAR
STARTCHAR bracketleft
ENCODING 91
SWIDTH 324 0
DWIDTH 5 0
BBX 3 14 1 -3
BITMAP
E0
E0
C0
C0
C0
C0
C0
C0
C0
C0
C0
C0
E0
E0
ENDCHAR
STARTCHAR backslash
ENCODING 92
SWIDTH 429 0
DWIDTH 7 0
BBX 7 14 0 -2
BITMAP
C0
C0
60
60
60
30
30
18
18
18
0C
0C
06
06
ENDCHAR
STARTCHAR bracketright
ENCODING 93
SWIDTH 324 0
DWIDTH 5 0
BBX 3 14 1 -3
BITMAP
E0
E0
60
60
60
60
60
60
60
60
60
60
E0
E0
ENDCHAR
STARTCHAR asciicircum
ENCODING 94
SWIDTH 498 0
DWIDTH 8 0
BBX 7 6 0 4
BITMAP
38
38
6C
6C
C6
C6
ENDCHAR
STARTCHAR underscore
ENCODING 95
SWIDTH 498 0
DWIDTH 8 0
BBX 8 2 0 -3
BITMAP
FF
FF
ENDCHAR
STARTCHAR grave
ENCODING 96
SWIDTH 300 0
DWIDTH 5 0
BBX 3 3 1 8
BITMAP
C0
60
20
ENDCHAR
STARTCHAR a
ENCODING 97
SWIDTH 493 0
DWIDTH 8 0
BBX 6 7 1 0
BITMAP
F8
FC
0C
7C
CC
FC
7C
ENDCHAR
STARTCHAR b
ENCODING 98
SWIDTH 536 0
DWIDTH 9 0
BBX 7 11 1 0
BITMAP
C0
C0
C0
C0
DC
FE
C6
C6
C6
FE
DC
ENDCHAR
STARTCHAR c
ENCODING 99
SWIDTH 418 0
DWIDTH 7 0
BBX 5 7 1 0
BITMAP
78
F8
C0
C0
C0
F8
78
ENDCHAR
STARTCHAR d
ENCODING 100
SWIDTH 536 0
DWIDTH 9 0
BBX 7 11 1 0
BITMAP
06
06
06
06
76
FE
C6
C6
C6
FE
76
ENDCHAR
STARTCHAR e
ENCODING 101
SWIDTH 503 0
DWIDTH 8 0
BBX 6 7 1 0
BITMAP
78
FC
CC
FC
C0
FC
7C
ENDCHAR
STARTCHAR f
ENCODING 102
SWIDTH 316 0
DWIDTH 5 0
BBX 5 11 0 0
BITMAP
38
78
60
60
F8
F8
60
60
60
60
60
ENDCHAR
STARTCHAR g
ENCODING 103
SWIDTH 474 0
DWIDTH 8 0
BBX 7 10 1 -3
BITMAP
7E
CC
CC
CC
78
C0
7C
C6
C6
7C
ENDCHAR
STARTCHAR h
ENCODING 104
SWIDTH 536 0
DWIDTH 9 0
BBX 7 11 1 0
BITMAP
C0
C0
C0
C0
DC
FE
C6
C6
C6
C6
C6
ENDCHAR
STARTCHAR i
ENCODING 105
SWIDTH 245 0
DWIDTH 4 0
BBX 2 10 1 0
BITMAP
C0
C0
00
C0
C0
C0
C0
C0
C0
C0
ENDCHAR
STARTCHAR j
ENCODING 106
SWIDTH 255 0
DWIDTH 4 0
BBX 3 13 0 -3
BITMAP
60
60
00
60
60
60
60
60
60
60
60
E0
C0
ENDCHAR
STARTCHAR k
ENCODING 107
SWIDTH 479 0
DWIDTH 8 0
BBX 7 11 1 0
BITMAP
C0
C0
C0
C0
C6
CC
D8
F0
D8
CC
C6
ENDCHAR
STARTCHAR l
ENCODING 108
SWIDTH 245 0
DWIDTH 4 0
BBX 2 11 1 0
BITMAP
C0
C0
C0
C0
C0
C0
C0
C0
C0
C0
C0
ENDCHAR
STARTCHAR m
ENCODING 109
SWIDTH 813 0
DWIDTH 13 0
BBX 10 7 1 0
BITMAP
DB80
FFC0
CCC0
CCC0
CCC0
CCC0
CCC0
ENDCHAR
STARTCHAR n
ENCODING 110
SWIDTH 536 0
DWIDTH 9 0
BBX 7 7 1 0
BITMAP
DC
FE
C6
C6
C6
C6
C6
ENDCHAR
STARTCHAR o
ENCODING 111
SWIDTH 537 0
DWIDTH 9 0
BBX 7 7 1 0
BITMAP
7C
FE
C6
C6
C6
FE
7C
ENDCHAR
STARTCHAR p
ENCODING 112
SWIDTH 536 0
DWIDTH 9 0
BBX 7 10 1 -3
BITMAP
DC
FE
C6
C6
C6
FE
DC
C0
C0
C0
ENDCHAR
STARTCHAR q
ENCODING 113
SWIDTH 536 0
DWIDTH 9 0
BBX 7 10 1 -3
BITMAP
76
FE
C6
C6
C6
FE
76
06
06
06
ENDCHAR
STARTCHAR r
ENCODING 114
SWIDTH 355 0
DWIDTH 6 0
BBX 5 7 1 0
BITMAP
D8
F8
C0
C0
C0
C0
C0
ENDCHAR
STARTCHAR s
ENCODING 115
SWIDTH 398 0
DWIDTH 6 0
BBX 4 7 1 0
BITMAP
70
F0
C0
60
30
F0
E0
ENDCHAR
STARTCHAR t
ENCODING 116
SWIDTH 346 0
DWIDTH 6 0
BBX 5 9 0 0
BITMAP
60
60
F8
F8
60
60
60
78
38
ENDCHAR
STARTCHAR u
ENCODING 117
SWIDTH 536 0
DWIDTH 9 0
BBX 7 7 1 0
BITMAP
C6
C6
C6
C6
C6
FE
76
ENDCHAR
STARTCHAR v
ENCODING 118
SWIDTH 473 0
DWIDTH 8 0
BBX 8 7 0 0
BITMAP
C3
C3
66
66
3C
3C
18
ENDCHAR
STARTCHAR w
ENCODING 119
SWIDTH 745 0
DWIDTH 12 0
BBX 12 7 0 0
BITMAP
C630
C630
6F60
6F60
39C0
39C0
1980
ENDCHAR
STARTCHAR x
ENCODING 120
SWIDTH 459 0
DWIDTH 7 0
BBX 7 7 0 0
BITMAP
C6
6C
6C
38
6C
6C
C6
ENDCHAR
STARTCHAR y
ENCODING 121
SWIDTH 473 0
DWIDTH 8 0
BBX 8 10 0 -3
BITMAP
C3
C3
66
66
3C
3C
18
18
30
30
ENDCHAR
STARTCHAR z
ENCODING 122
SWIDTH 397 0
DWIDTH 6 0
BBX 4 7 1 0
BITMAP
F0
F0
30
60
C0
F0
F0
ENDCHAR
STARTCHAR braceleft
ENCODING 123
SWIDTH 343 0
DWIDTH 6 0
BBX 4 14 1 -3
BITMAP
30
70
60
60
60
60
C0
C0
60
60
60
60
70
30
ENDCHAR
STARTCHAR bar
ENCODING 124
SWIDTH 475 0
DWIDTH 8 0
BBX 2 14 3 -3
BITMAP
C0
C0
C0
C0
C0
C0
C0
C0
C0
C0
C0
C0
C0
C0
ENDCHAR
STARTCHAR braceright
ENCODING 125
SWIDTH 343 0
DWIDTH 6 0
BBX 4 14 1 -3
BITMAP
C0
E0
60
60
60
60
30
30
60
60
60
60
E0
C0
ENDCHAR
STARTCHAR asciitilde
ENCODING 126
SWIDTH 498 0
DWIDTH 8 0
BBX 7 4 0 5
BITMAP
66
F6
DE
CC
ENDCHAR
STARTCHAR exclamdown
ENCODING 161
SWIDTH 325 0
DWIDTH 5 0
BBX 2 11 1 -2
BITMAP
C0
C0
00
C0
C0
C0
C0
C0
C0
C0
C0
ENDCHAR
STARTCHAR cent
ENCODING 162
SWIDTH 498 0
DWIDTH 8 0
BBX 6 10 1 0
BITMAP
30
78
FC
C4
C0
C0
C4
FC
78
30
ENDCHAR
STARTCHAR sterling
ENCODING 163
SWIDTH 506 0
DWIDTH 8 0
BBX 7 10 0 0
BITMAP
3C
7E
62
60
FC
FC
60
60
FE
FE
ENDCHAR
STARTCHAR currency
ENCODING 164
SWIDTH 498 0
DWIDTH 8 0
BBX 6 8 1 1
BITMAP
CC
78
FC
CC
CC
FC
78
CC
ENDCHAR
STARTCHAR yen
ENCODING 165
SWIDTH 506 0
DWIDTH 8 0
BBX 8 10 0 0
BITMAP
C3
C3
66
66
3C
18
7E
18
7E
18
ENDCHAR
STARTCHAR brokenbar
ENCODING 166
SWIDTH 498 0
DWIDTH 8 0
BBX 2 14 3 -3
BITMAP
C0
C0
C0
C0
C0
C0
00
00
C0
C0
C0
C0
C0
C0
ENDCHAR
STARTCHAR section
ENCODING 167
SWIDTH 498 0
DWIDTH 8 0
BBX 7 13 0 -2
BITMAP
3C
7C
60
70
7C
CE
C6
E6
7C
1C
0C
7C
78
ENDCHAR
STARTCHAR dieresis
ENCODING 168
SWIDTH 414 0
DWIDTH 7 0
BBX 5 2 1 8
BITMAP
D8
D8
ENDCHAR
STARTCHAR copyright
ENCODING 169
SWIDTH 834 0
DWIDTH 13 0
BBX 11 11 1 0
BITMAP
1F00
60C0
4E40
9F20
9920
9820
9920
9F20
4E40
60C0
1F00
ENDCHAR
STARTCHAR ordfeminine
ENCODING 170
SWIDTH 416 0
DWIDTH 7 0
BBX 5 8 1 2
BITMAP
F0
18
78
D8
D8
78
00
F8
ENDCHAR
STARTCHAR guillemotleft
ENCODING 171
SWIDTH 538 0
DWIDTH 9 0
BBX 8 6 0 1
BITMAP
33
66
CC
CC
66
33
ENDCHAR
STARTCHAR logicalnot
ENCODING 172
SWIDTH 498 0
DWIDTH 8 0
BBX 7 5 0 1
BITMAP
FE
FE
06
06
06
ENDCHAR
STARTCHAR hyphen.dup1
ENCODING 173
SWIDTH 306 0
DWIDTH 5 0
BBX 3 2 1 3
BITMAP
E0
E0
ENDCHAR
STARTCHAR registered
ENCODING 174
SWIDTH 506 0
DWIDTH 8 0
BBX 6 6 1 5
BITMAP
78
84
B4
B4
84
78
ENDCHAR
STARTCHAR macron
ENCODING 175
SWIDTH 390 0
DWIDTH 6 0
BBX 5 2 1 8
BITMAP
F8
F8
ENDCHAR
STARTCHAR degree
ENCODING 176
SWIDTH 342 0
DWIDTH 5 0
BBX 4 4 0 7
BITMAP
60
90
90
60
ENDCHAR
STARTCHAR plusminus
ENCODING 177
SWIDTH 498 0
DWIDTH 8 0
BBX 8 11 0 0
BITMAP
18
18
18
FF
FF
18
18
18
00
FF
FF
ENDCHAR
STARTCHAR uni00B2
ENCODING 178
SWIDTH 337 0
DWIDTH 5 0
BBX 4 7 0 5
BITMAP
60
B0
30
30
60
C0
F0
ENDCHAR
STARTCHAR uni00B3
ENCODING 179
SWIDTH 335 0
DWIDTH 5 0
BBX 4 7 0 5
BITMAP
E0
30
30
60
30
30
E0
ENDCHAR
STARTCHAR acute
ENCODING 180
SWIDTH 300 0
DWIDTH 5 0
BBX 3 3 1 8
BITMAP
60
C0
80
ENDCHAR
STARTCHAR mu
ENCODING 181
SWIDTH 563 0
DWIDTH 9 0
BBX 8 10 1 -3
BITMAP
C6
C6
C6
C6
C6
FF
FB
C0
C0
C0
ENDCHAR
STARTCHAR paragraph
ENCODING 182
SWIDTH 597 0
DWIDTH 10 0
BBX 8 12 1 -2
BITMAP
7F
FB
FB
FB
FB
7B
1B
1B
1B
1B
1B
1B
ENDCHAR
STARTCHAR periodcentered
ENCODING 183
SWIDTH 267 0
DWIDTH 4 0
BBX 2 2 1 3
BITMAP
C0
C0
ENDCHAR
STARTCHAR cedilla
ENCODING 184
SWIDTH 303 0
DWIDTH 5 0
BBX 3 3 1 -3
BITMAP
C0
60
C0
ENDCHAR
STARTCHAR uni00B9
ENCODING 185
SWIDTH 252 0
DWIDTH 4 0
BBX 3 7 0 5
BITMAP
60
E0
60
60
60
60
60
ENDCHAR
STARTCHAR ordmasculine
ENCODING 186
SWIDTH 435 0
DWIDTH 7 0
BBX 5 8 1 2
BITMAP
70
D8
D8
D8
D8
70
00
F8
ENDCHAR
STARTCHAR guillemotright
ENCODING 187
SWIDTH 538 0
DWIDTH 9 0
BBX 8 6 1 1
BITMAP
CC
66
33
33
66
CC
ENDCHAR
STARTCHAR onequarter
ENCODING 188
SWIDTH 657 0
DWIDTH 11 0
BBX 10 10 0 0
BITMAP
6180
E300
6600
6600
6C00
1980
3380
3580
67C0
C180
ENDCHAR
STARTCHAR onehalf
ENCODING 189
SWIDTH 690 0
DWIDTH 11 0
BBX 10 10 0 0
BITMAP
6180
E300
6600
6600
6C00
1B80
30C0
30C0
6180
C3C0
ENDCHAR
STARTCHAR threequarters
ENCODING 190
SWIDTH 701 0
DWIDTH 11 0
BBX 11 10 0 0
BITMAP
E0C0
3180
6300
3300
E600
0CC0
19C0
1AC0
33E0
60C0
ENDCHAR
STARTCHAR questiondown
ENCODING 191
SWIDTH 463 0
DWIDTH 7 0
BBX 6 11 0 -2
BITMAP
18
18
00
18
18
78
C0
C0
C4
FC
78
ENDCHAR
STARTCHAR Agrave
ENCODING 192
SWIDTH 605 0
DWIDTH 10 0
BBX 10 14 0 0
BITMAP
1800
0C00
0400
0000
0C00
1E00
1E00
3300
3300
6180
7F80
7F80
C0C0
C0C0
ENDCHAR
STARTCHAR Aacute
ENCODING 193
SWIDTH 605 0
DWIDTH 10 0
BBX 10 14 0 0
BITMAP
0600
0C00
0800
0000
0C00
1E00
1E00
3300
3300
6180
7F80
7F80
C0C0
C0C0
ENDCHAR
STARTCHAR Acircumflex
ENCODING 194
SWIDTH 605 0
DWIDTH 10 0
BBX 10 14 0 0
BITMAP
0400
0E00
1B00
0000
0C00
1E00
1E00
3300
3300
6180
7F80
7F80
C0C0
C0C0
ENDCHAR
STARTCHAR Atilde
ENCODING 195
SWIDTH 605 0
DWIDTH 10 0
BBX 10 14 0 0
BITMAP
1900
3F00
2600
0000
0C00
1E00
1E00
3300
3300
6180
7F80
7F80
C0C0
C0C0
ENDCHAR
STARTCHAR Adieresis
ENCODING 196
SWIDTH 605 0
DWIDTH 10 0
BBX 10 13 0 0
BITMAP
3300
3300
0000
0C00
1E00
1E00
3300
3300
6180
7F80
7F80
C0C0
C0C0
ENDCHAR
STARTCHAR Aring
ENCODING 197
SWIDTH 605 0
DWIDTH 10 0
BBX 10 13 0 0
BITMAP
1C00
1400
1C00
0C00
1E00
1E00
3300
3300
6180
7F80
7F80
C0C0
C0C0
ENDCHAR
STARTCHAR AE
ENCODING 198
SWIDTH 775 0
DWIDTH 12 0
BBX 12 10 0 0
BITMAP
0FF0
0FF0
1B00
1B00
33E0
33E0
7F00
7F00
C3F0
C3F0
ENDCHAR
STARTCHAR Ccedilla
ENCODING 199
SWIDTH 529 0
DWIDTH 8 0
BBX 7 13 1 -3
BITMAP
3C
7E
E2
C0
C0
C0
C0
E2
7E
3C
10
18
30
ENDCHAR
STARTCHAR Egrave
ENCODING 200
SWIDTH 487 0
DWIDTH 8 0
BBX 6 14 1 0
BITMAP
60
30
10
00
FC
FC
C0
C0
F8
F8
C0
C0
FC
FC
ENDCHAR
STARTCHAR Eacute
ENCODING 201
SWIDTH 487 0
DWIDTH 8 0
BBX 6 14 1 0
BITMAP
18
30
20
00
FC
FC
C0
C0
F8
F8
C0
C0
FC
FC
ENDCHAR
STARTCHAR Ecircumflex
ENCODING 202
SWIDTH 487 0
DWIDTH 8 0
BBX 6 14 1 0
BITMAP
10
38
6C
00
FC
FC
C0
C0
F8
F8
C0
C0
FC
FC
ENDCHAR
STARTCHAR Edieresis
ENCODING 203
SWIDTH 487 0
DWIDTH 8 0
BBX 6 13 1 0
BITMAP
6C
6C
00
FC
FC
C0
C0
F8
F8
C0
C0
FC
FC
ENDCHAR
STARTCHAR Igrave
ENCODING 204
SWIDTH 266 0
DWIDTH 4 0
BBX 3 14 0 0
BITMAP
C0
60
20
00
60
60
60
60
60
60
60
60
60
60
ENDCHAR
STARTCHAR Iacute
ENCODING 205
SWIDTH 266 0
DWIDTH 4 0
BBX 3 14 1 0
BITMAP
60
C0
80
00
C0
C0
C0
C0
C0
C0
C0
C0
C0
C0
ENDCHAR
STARTCHAR Icircumflex
ENCODING 206
SWIDTH 266 0
DWIDTH 4 0
BBX 5 14 0 0
BITMAP
20
70
D8
00
60
60
60
60
60
60
60
60
60
60
ENDCHAR
STARTCHAR Idieresis
ENCODING 207
SWIDTH 266 0
DWIDTH 4 0
BBX 6 13 -1 0
BITMAP
CC
CC
00
30
30
30
30
30
30
30
30
30
30
ENDCHAR
STARTCHAR Eth
ENCODING 208
SWIDTH 639 0
DWIDTH 10 0
BBX 9 10 0 0
BITMAP
7E00
7F00
6380
6180
F980
F980
6180
6380
7F00
7E00
ENDCHAR
STARTCHAR Ntilde
ENCODING 209
SWIDTH 658 0
DWIDTH 11 0
BBX 9 14 1 0
BITMAP
1900
3F00
2600
0000
E180
F180
F180
D980
D980
CD80
CD80
C780
C780
C380
ENDCHAR
STARTCHAR Ograve
ENCODING 210
SWIDTH 676 0
DWIDTH 11 0
BBX 9 14 1 0
BITMAP
3000
1800
0800
0000
3E00
7F00
E380
C180
C180
C180
C180
E380
7F00
3E00
ENDCHAR
STARTCHAR Oacute
ENCODING 211
SWIDTH 676 0
DWIDTH 11 0
BBX 9 14 1 0
BITMAP
0600
0C00
0800
0000
3E00
7F00
E380
C180
C180
C180
C180
E380
7F00
3E00
ENDCHAR
STARTCHAR Ocircumflex
ENCODING 212
SWIDTH 676 0
DWIDTH 11 0
BBX 9 14 1 0
BITMAP
0800
1C00
3600
0000
3E00
7F00
E380
C180
C180
C180
C180
E380
7F00
3E00
ENDCHAR
STARTCHAR Otilde
ENCODING 213
SWIDTH 676 0
DWIDTH 11 0
BBX 9 14 1 0
BITMAP
1900
3F00
2600
0000
3E00
7F00
E380
C180
C180
C180
C180
E380
7F00
3E00
ENDCHAR
STARTCHAR Odieresis
ENCODING 214
SWIDTH 676 0
DWIDTH 11 0
BBX 9 13 1 0
BITMAP
3600
3600
0000
3E00
7F00
E380
C180
C180
C180
C180
E380
7F00
3E00
ENDCHAR
STARTCHAR multiply
ENCODING 215
SWIDTH 498 0
DWIDTH 8 0
BBX 7 7 0 1
BITMAP
C6
EE
7C
38
7C
EE
C6
ENDCHAR
STARTCHAR Oslash
ENCODING 216
SWIDTH 680 0
DWIDTH 11 0
BBX 9 14 1 -2
BITMAP
0300
0300
3E00
7F00
E780
CD80
CD80
D980
D980
F380
7F00
3E00
6000
6000
ENDCHAR
STARTCHAR Ugrave
ENCODING 217
SWIDTH 652 0
DWIDTH 10 0
BBX 8 14 1 0
BITMAP
30
18
08
00
C3
C3
C3
C3
C3
C3
C3
E7
7E
3C
ENDCHAR
STARTCHAR Uacute
ENCODING 218
SWIDTH 652 0
DWIDTH 10 0
BBX 8 14 1 0
BITMAP
0C
18
10
00
C3
C3
C3
C3
C3
C3
C3
E7
7E
3C
ENDCHAR
STARTCHAR Ucircumflex
ENCODING 219
SWIDTH 652 0
DWIDTH 10 0
BBX 8 14 1 0
BITMAP
08
1C
36
00
C3
C3
C3
C3
C3
C3
C3
E7
7E
3C
ENDCHAR
STARTCHAR Udieresis
ENCODING 220
SWIDTH 652 0
DWIDTH 10 0
BBX 8 13 1 0
BITMAP
66
66
00
C3
C3
C3
C3
C3
C3
C3
E7
7E
3C
ENDCHAR
STARTCHAR Yacute
ENCODING 221
SWIDTH 519 0
DWIDTH 8 0
BBX 8 14 0 0
BITMAP
0C
18
10
00
C3
C3
66
66
3C
3C
18
18
18
18
ENDCHAR
STARTCHAR Thorn
ENCODING 222
SWIDTH 532 0
DWIDTH 9 0
BBX 7 10 1 0
BITMAP
C0
FC
FE
C6
C6
C6
FE
FC
C0
C0
ENDCHAR
STARTCHAR germandbls
ENCODING 223
SWIDTH 554 0
DWIDTH 9 0
BBX 7 11 1 0
BITMAP
7C
FE
C6
C6
CE
D8
DC
CE
C6
DE
DC
ENDCHAR
STARTCHAR agrave
ENCODING 224
SWIDTH 493 0
DWIDTH 8 0
BBX 6 11 1 0
BITMAP
60
30
10
00
F8
FC
0C
7C
CC
FC
7C
ENDCHAR
STARTCHAR aacute
ENCODING 225
SWIDTH 493 0
DWIDTH 8 0
BBX 6 11 1 0
BITMAP
18
30
20
00
F8
FC
0C
7C
CC
FC
7C
ENDCHAR
STARTCHAR acircumflex
ENCODING 226
SWIDTH 493 0
DWIDTH 8 0
BBX 6 11 1 0
BITMAP
10
38
6C
00
F8
FC
0C
7C
CC
FC
7C
ENDCHAR
STARTCHAR atilde
ENCODING 227
SWIDTH 493 0
DWIDTH 8 0
BBX 6 11 1 0
BITMAP
64
FC
98
00
F8
FC
0C
7C
CC
FC
7C
ENDCHAR
STARTCHAR adieresis
ENCODING 228
SWIDTH 493 0
DWIDTH 8 0
BBX 6 10 1 0
BITMAP
6C
6C
00
F8
FC
0C
7C
CC
FC
7C
ENDCHAR
STARTCHAR aring
ENCODING 229
SWIDTH 493 0
DWIDTH 8 0
BBX 6 11 1 0
BITMAP
38
28
38
00
F8
FC
0C
7C
CC
FC
7C
ENDCHAR
STARTCHAR ae
ENCODING 230
SWIDTH 774 0
DWIDTH 12 0
BBX 10 7 1 0
BITMAP
FB80
FFC0
0CC0
7FC0
CC00
FFC0
77C0
ENDCHAR
STARTCHAR ccedilla
ENCODING 231
SWIDTH 418 0
DWIDTH 7 0
BBX 5 10 1 -3
BITMAP
78
F8
C0
C0
C0
F8
78
20
30
60
ENDCHAR
STARTCHAR egrave
ENCODING 232
SWIDTH 503 0
DWIDTH 8 0
BBX 6 11 1 0
BITMAP
60
30
10
00
78
FC
CC
FC
C0
FC
7C
ENDCHAR
STARTCHAR eacute
ENCODING 233
SWIDTH 503 0
DWIDTH 8 0
BBX 6 11 1 0
BITMAP
18
30
20
00
78
FC
CC
FC
C0
FC
7C
ENDCHAR
STARTCHAR ecircumflex
ENCODING 234
SWIDTH 503 0
DWIDTH 8 0
BBX 6 11 1 0
BITMAP
10
38
6C
00
78
FC
CC
FC
C0
FC
7C
ENDCHAR
STARTCHAR edieresis
ENCODING 235
SWIDTH 503 0
DWIDTH 8 0
BBX 6 10 1 0
BITMAP
6C
6C
00
78
FC
CC
FC
C0
FC
7C
ENDCHAR
STARTCHAR igrave
ENCODING 236
SWIDTH 245 0
DWIDTH 4 0
BBX 3 11 0 0
BITMAP
C0
60
20
00
60
60
60
60
60
60
60
ENDCHAR
STARTCHAR iacute
ENCODING 237
SWIDTH 245 0
DWIDTH 4 0
BBX 3 11 1 0
BITMAP
60
C0
80
00
C0
C0
C0
C0
C0
C0
C0
ENDCHAR
STARTCHAR icircumflex
ENCODING 238
SWIDTH 245 0
DWIDTH 4 0
BBX 5 11 0 0
BITMAP
20
70
D8
00
60
60
60
60
60
60
60
ENDCHAR
STARTCHAR idieresis
ENCODING 239
SWIDTH 245 0
DWIDTH 4 0
BBX 6 10 -1 0
BITMAP
CC
CC
00
30
30
30
30
30
30
30
ENDCHAR
STARTCHAR eth
ENCODING 240
SWIDTH 536 0
DWIDTH 9 0
BBX 7 11 1 0
BITMAP
36
18
6C
06
76
FE
C6
C6
C6
FE
7C
ENDCHAR
STARTCHAR ntilde
ENCODING 241
SWIDTH 536 0
DWIDTH 9 0
BBX 7 11 1 0
BITMAP
32
7E
4C
00
DC
FE
C6
C6
C6
C6
C6
ENDCHAR
STARTCHAR ograve
ENCODING 242
SWIDTH 537 0
DWIDTH 9 0
BBX 7 11 1 0
BITMAP
60
30
10
00
7C
FE
C6
C6
C6
FE
7C
ENDCHAR
STARTCHAR oacute
ENCODING 243
SWIDTH 537 0
DWIDTH 9 0
BBX 7 11 1 0
BITMAP
0C
18
10
00
7C
FE
C6
C6
C6
FE
7C
ENDCHAR
STARTCHAR ocircumflex
ENCODING 244
SWIDTH 537 0
DWIDTH 9 0
BBX 7 11 1 0
BITMAP
10
38
6C
00
7C
FE
C6
C6
C6
FE
7C
ENDCHAR
STARTCHAR otilde
ENCODING 245
SWIDTH 537 0
DWIDTH 9 0
BBX 7 11 1 0
BITMAP
32
7E
4C
00
7C
FE
C6
C6
C6
FE
7C
ENDCHAR
STARTCHAR odieresis
ENCODING 246
SWIDTH 537 0
DWIDTH 9 0
BBX 7 10 1 0
BITMAP
6C
6C
00
7C
FE
C6
C6
C6
FE
7C
ENDCHAR
STARTCHAR divide
ENCODING 247
SWIDTH 498 0
DWIDTH 8 0
BBX 8 8 0 1
BITMAP
18
18
00
FF
FF
00
18
18
ENDCHAR
STARTCHAR oslash
ENCODING 248
SWIDTH 543 0
DWIDTH 9 0
BBX 7 9 1 -1
BITMAP
06
7C
FE
CE
D6
E6
FE
7C
C0
ENDCHAR
STARTCHAR ugrave
ENCODING 249
SWIDTH 536 0
DWIDTH 9 0
BBX 7 11 1 0
BITMAP
60
30
10
00
C6
C6
C6
C6
C6
FE
76
ENDCHAR
STARTCHAR uacute
ENCODING 250
SWIDTH 536 0
DWIDTH 9 0
BBX 7 11 1 0
BITMAP
0C
18
10
00
C6
C6
C6
C6
C6
FE
76
ENDCHAR
STARTCHAR ucircumflex
ENCODING 251
SWIDTH 536 0
DWIDTH 9 0
BBX 7 11 1 0
BITMAP
10
38
6C
00
C6
C6
C6
C6
C6
FE
76
ENDCHAR
STARTCHAR udieresis
ENCODING 252
SWIDTH 536 0
DWIDTH 9 0
BBX 7 10 1 0
BITMAP
6C
6C
00
C6
C6
C6
C6
C6
FE
76
ENDCHAR
STARTCHAR yacute
ENCODING 253
SWIDTH 473 0
DWIDTH 8 0
BBX 8 14 0 -3
BITMAP
0C
18
10
00
C3
C3
66
66
3C
3C
18
18
30
30
ENDCHAR
STARTCHAR thorn
ENCODING 254
SWIDTH 536 0
DWIDTH 9 0
BBX 7 14 1 -3
BITMAP
C0
C0
C0
C0
DC
FE
C6
C6
C6
FE
DC
C0
C0
C0
ENDCHAR
STARTCHAR ydieresis
ENCODING 255
SWIDTH 473 0
DWIDTH 8 0
BBX 8 13 0 -3
BITMAP
66
66
00
C3
C3
66
66
3C
3C
18
18
30
30
ENDCHAR
STARTCHAR OE
ENCODING 338
SWIDTH 874 0
DWIDTH 14 0
BBX 13 10 1 0
BITMAP
3FF8
7FF8
E180
C180
C1F0
C1F0
C180
E180
7FF8
3FF8
ENDCHAR
STARTCHAR oe
ENCODING 339
SWIDTH 842 0
DWIDTH 13 0
BBX 11 7 1 0
BITMAP
7BC0
FFE0
C660
C7E0
C600
FFE0
7BE0
ENDCHAR
STARTCHAR Scaron
ENCODING 352
SWIDTH 472 0
DWIDTH 8 0
BBX 6 14 1 0
BITMAP
6C
38
10
00
78
FC
C4
C0
F8
7C
0C
8C
FC
78
ENDCHAR
STARTCHAR scaron
ENCODING 353
SWIDTH 398 0
DWIDTH 6 0
BBX 5 11 1 0
BITMAP
D8
70
20
00
70
F0
C0
60
30
F0
E0
ENDCHAR
STARTCHAR Ydieresis
ENCODING 376
SWIDTH 519 0
DWIDTH 8 0
BBX 8 13 0 0
BITMAP
66
66
00
C3
C3
66
66
3C
3C
18
18
18
18
ENDCHAR
STARTCHAR Zcaron
ENCODING 381
SWIDTH 478 0
DWIDTH 8 0
BBX 8 14 0 0
BITMAP
36
1C
08
00
FF
FF
07
0E
1C
38
70
E0
FF
FF
ENDCHAR
STARTCHAR zcaron
ENCODING 382
SWIDTH 397 0
DWIDTH 6 0
BBX 5 11 1 0
BITMAP
D8
70
20
00
F0
F0
30
60
C0
F0
F0
ENDCHAR
STARTCHAR circumflex
ENCODING 710
SWIDTH 401 0
DWIDTH 6 0
BBX 5 3 1 8
BITMAP
20
70
D8
ENDCHAR
STARTCHAR macron.dup2
ENCODING 713
SWIDTH 390 0
DWIDTH 6 0
BBX 5 2 1 8
BITMAP
F8
F8
ENDCHAR
STARTCHAR tilde
ENCODING 732
SWIDTH 444 0
DWIDTH 7 0
BBX 6 3 1 8
BITMAP
64
FC
98
ENDCHAR
STARTCHAR hyphen.dup3
ENCODING 8208
SWIDTH 306 0
DWIDTH 5 0
BBX 3 2 1 3
BITMAP
E0
E0
ENDCHAR
STARTCHAR endash
ENCODING 8211
SWIDTH 498 0
DWIDTH 8 0
BBX 8 2 0 3
BITMAP
FF
FF
ENDCHAR
STARTCHAR emdash
ENCODING 8212
SWIDTH 905 0
DWIDTH 14 0
BBX 12 2 1 3
BITMAP
FFF0
FFF0
ENDCHAR
STARTCHAR quoteleft
ENCODING 8216
SWIDTH 257 0
DWIDTH 4 0
BBX 3 4 1 7
BITMAP
60
C0
C0
C0
ENDCHAR
STARTCHAR quoteright
ENCODING 8217
SWIDTH 257 0
DWIDTH 4 0
BBX 3 4 0 7
BITMAP
60
60
60
C0
ENDCHAR
STARTCHAR quotesinglbase
ENCODING 8218
SWIDTH 257 0
DWIDTH 4 0
BBX 3 4 0 -2
BITMAP
60
60
60
C0
ENDCHAR
STARTCHAR quotedblleft
ENCODING 8220
SWIDTH 435 0
DWIDTH 7 0
BBX 6 4 1 7
BITMAP
6C
D8
D8
D8
ENDCHAR
STARTCHAR quotedblright
ENCODING 8221
SWIDTH 435 0
DWIDTH 7 0
BBX 6 4 0 7
BITMAP
6C
6C
6C
D8
ENDCHAR
STARTCHAR quotedblbase
ENCODING 8222
SWIDTH 435 0
DWIDTH 7 0
BBX 6 4 0 -2
BITMAP
6C
6C
6C
D8
ENDCHAR
STARTCHAR dagger
ENCODING 8224
SWIDTH 498 0
DWIDTH 8 0
BBX 6 10 1 1
BITMAP
30
30
FC
FC
30
30
30
30
30
30
ENDCHAR
STARTCHAR daggerdbl
ENCODING 8225
SWIDTH 498 0
DWIDTH 8 0
BBX 6 11 1 0
BITMAP
30
30
FC
FC
30
30
30
FC
FC
30
30
ENDCHAR
STARTCHAR bullet
ENCODING 8226
SWIDTH 498 0
DWIDTH 8 0
BBX 6 6 1 2
BITMAP
78
FC
FC
FC
FC
78
ENDCHAR
STARTCHAR ellipsis
ENCODING 8230
SWIDTH 711 0
DWIDTH 11 0
BBX 10 2 0 0
BITMAP
CCC0
CCC0
ENDCHAR
STARTCHAR perthousand
ENCODING 8240
SWIDTH 1061 0
DWIDTH 17 0
BBX 17 10 0 0
BITMAP
70C000
D98000
DB0000
DB0000
760000
0DC700
1B6D80
1B6D80
336D80
61C700
ENDCHAR
STARTCHAR guilsinglleft
ENCODING 8249
SWIDTH 344 0
DWIDTH 6 0
BBX 4 6 1 1
BITMAP
30
60
C0
C0
60
30
ENDCHAR
STARTCHAR guilsinglright
ENCODING 8250
SWIDTH 344 0
DWIDTH 6 0
BBX 4 6 1 1
BITMAP
C0
60
30
30
60
C0
ENDCHAR
STARTCHAR Euro
ENCODING 8364
SWIDTH 506 0
DWIDTH 8 0
BBX 7 10 0 0
BITMAP
3C
7E
62
F8
60
60
F8
62
7E
3C
ENDCHAR
STARTCHAR trademark
ENCODING 8482
SWIDTH 720 0
DWIDTH 12 0
BBX 9 5 1 5
BITMAP
E880
4D80
4D80
4A80
4A80
ENDCHAR
STARTCHAR periodcentered.dup4
ENCODING 8729
SWIDTH 267 0
DWIDTH 4 0
BBX 2 2 1 3
BITMAP
C0
C0
ENDCHAR
STARTCHAR glyph941
ENCODING -1
SWIDTH 498 0
DWIDTH 8 0
BBX 6 14 1 -3
BITMAP
1C
3C
30
30
F8
F8
60
60
60
60
60
C0
C0
C0
ENDCHAR
ENDFONT
